<svg width="24" height="24" viewBox="0 0 24 24" fill="none" stroke="currentColor" stroke-width="2" xmlns="http://www.w3.org/2000/svg"><path d="M12 2C6.48 2 2 6.48 2 12c0 4.26 2.66 7.9 6.44 9.29-.09-.79-.17-2.01.03-2.89.18-.8 1.18-5.02 1.18-5.02s-.3-.61-.3-1.5c0-1.41.82-2.46 1.84-2.46.87 0 1.29.65 1.29 1.43 0 .87-.55 2.18-.84 3.4-.24 1.02.51 1.85 1.51 1.85 1.81 0 3.2-1.91 3.2-4.66 0-2.44-1.75-4.14-4.26-4.14-2.88 0-4.57 2.16-4.57 4.39 0 .87.33 1.8.75 2.3.08.1.09.19.07.28l-.24.97c-.03.14-.11.16-.25.1-1.39-.65-2.26-2.69-2.26-4.32 0-3.52 2.56-6.75 7.37-6.75 3.86 0 6.87 2.75 6.87 6.41 0 3.84-2.42 6.93-5.78 6.93-1.13 0-2.19-.59-2.55-1.28l-.7 2.66c-.25.96-.94 2.16-1.4 2.89C10.15 21.84 11.06 22 12 22c5.52 0 10-4.48 10-10S17.52 2 12 2z"/></svg>